<?xml version="1.0" encoding="UTF-8"?>
<svg width="20px" height="21px" viewBox="0 0 20 21" version="1.1" xmlns="http://www.w3.org/2000/svg" xmlns:xlink="http://www.w3.org/1999/xlink">
    <!-- Generator: Sketch 53.2 (72643) - https://sketchapp.com -->
    <title></title>
    <desc>Created with Sketch.</desc>
    <g id="Page-1" stroke="none" stroke-width="1" fill="none" fill-rule="evenodd">
        <g id="description" transform="translate(-362.000000, -13532.000000)" fill="#111111" fill-rule="nonzero">
            <g id="Group-Copy-2">
                <g id="Rectangle-4-Copy-27" transform="translate(0.000000, 13499.000000)">
                    <path d="M380.75,35.125 C380.971355,35.125 381.179687,35.180338 381.375,35.2910156 C381.570313,35.4016933 381.723307,35.5514313 381.833984,35.7402344 C381.944662,35.9290374 382,36.1406238 382,36.375 L382,52 C382,52.3385434 381.879558,52.6315092 381.638672,52.8789062 C381.397785,53.1263033 381.101564,53.25 380.75,53.25 L363.25,53.25 C363.028645,53.25 362.820313,53.194662 362.625,53.0839844 C362.429687,52.9733067 362.276693,52.8203135 362.166016,52.625 C362.055338,52.4296865 362,52.2213553 362,52 L362,36.375 C362,36.0234357 362.120442,35.7272147 362.361328,35.4863281 C362.602215,35.2454415 362.898436,35.125 363.25,35.125 L368.25,35.125 L368.25,33.875 C368.25,33.7057283 368.311848,33.5592454 368.435547,33.4355469 C368.559245,33.3118483 368.705728,33.25 368.875,33.25 C369.044272,33.25 369.190755,33.3118483 369.314453,33.4355469 C369.438152,33.5592454 369.5,33.7057283 369.5,33.875 L369.5,35.125 L374.5,35.125 L374.5,33.875 C374.5,33.7057283 374.561848,33.5592454 374.685547,33.4355469 C374.809245,33.3118483 374.955728,33.25 375.125,33.25 C375.294272,33.25 375.440755,33.3118483 375.564453,33.4355469 C375.688152,33.5592454 375.75,33.7057283 375.75,33.875 L375.75,35.125 L380.75,35.125 Z M380.75,52 L380.75,36.375 L375.75,36.375 L375.75,37 C375.75,37.1692717 375.688152,37.3157546 375.564453,37.4394531 C375.440755,37.5631517 375.294272,37.625 375.125,37.625 C374.955728,37.625 374.809245,37.5631517 374.685547,37.4394531 C374.561848,37.3157546 374.5,37.1692717 374.5,37 L374.5,36.375 L369.5,36.375 L369.5,37 C369.5,37.1692717 369.438152,37.3157546 369.314453,37.4394531 C369.190755,37.5631517 369.044272,37.625 368.875,37.625 C368.705728,37.625 368.559245,37.5631517 368.435547,37.4394531 C368.311848,37.3157546 368.25,37.1692717 368.25,37 L368.25,36.375 L363.25,36.375 L363.25,52 L380.75,52 Z M376.375,43.25 C376.205728,43.25 376.059245,43.1881517 375.935547,43.0644531 C375.811848,42.9407546 375.75,42.7942717 375.75,42.625 L375.75,41.375 C375.75,41.2057283 375.811848,41.0592454 375.935547,40.9355469 C376.059245,40.8118483 376.205728,40.75 376.375,40.75 L377.625,40.75 C377.794272,40.75 377.940755,40.8118483 378.064453,40.9355469 C378.188152,41.0592454 378.25,41.2057283 378.25,41.375 L378.25,42.625 C378.25,42.7942717 378.188152,42.9407546 378.064453,43.0644531 C377.940755,43.1881517 377.794272,43.25 377.625,43.25 L376.375,43.25 Z M376.375,48.25 C376.205728,48.25 376.059245,48.1881517 375.935547,48.0644531 C375.811848,47.9407546 375.75,47.7942717 375.75,47.625 L375.75,46.375 C375.75,46.2057283 375.811848,46.0592454 375.935547,45.9355469 C376.059245,45.8118483 376.205728,45.75 376.375,45.75 L377.625,45.75 C377.794272,45.75 377.940755,45.8118483 378.064453,45.9355469 C378.188152,46.0592454 378.25,46.2057283 378.25,46.375 L378.25,47.625 C378.25,47.7942717 378.188152,47.9407546 378.064453,48.0644531 C377.940755,48.1881517 377.794272,48.25 377.625,48.25 L376.375,48.25 Z M372.625,45.75 C372.677084,45.75 372.732422,45.7565104 372.791016,45.7695312 C372.84961,45.7825521 372.901692,45.8020832 372.947266,45.828125 C372.992839,45.8541668 373.035156,45.8867186 373.074219,45.9257812 C373.113281,45.9648439 373.145833,46.0071612 373.171875,46.0527344 C373.197917,46.0983075 373.217448,46.1503903 373.230469,46.2089844 C373.24349,46.2675784 373.25,46.3229164 373.25,46.375 L373.25,47.625 C373.25,47.7942717 373.188152,47.9407546 373.064453,48.0644531 C372.940755,48.1881517 372.794272,48.25 372.625,48.25 L371.375,48.25 C371.309896,48.25 371.244792,48.2402345 371.179688,48.2207031 C371.114583,48.2011718 371.05599,48.1718752 371.003906,48.1328125 C370.951823,48.0937498 370.90625,48.0481773 370.867188,47.9960938 C370.828125,47.9440102 370.798828,47.885417 370.779297,47.8203125 C370.759766,47.755208 370.75,47.6901045 370.75,47.625 L370.75,46.375 C370.75,46.2057283 370.811848,46.0592454 370.935547,45.9355469 C371.059245,45.8118483 371.205728,45.75 371.375,45.75 L372.625,45.75 Z M372.625,40.75 C372.716146,40.75 372.797526,40.7662759 372.869141,40.7988281 C372.940756,40.8313804 373.005859,40.8769528 373.064453,40.9355469 C373.123047,40.9941409 373.16862,41.0592444 373.201172,41.1308594 C373.233724,41.2024743 373.25,41.2838537 373.25,41.375 L373.25,42.625 C373.25,42.7942717 373.188152,42.9407546 373.064453,43.0644531 C372.940755,43.1881517 372.794272,43.25 372.625,43.25 L371.375,43.25 C371.205728,43.25 371.059245,43.1881517 370.935547,43.0644531 C370.811848,42.9407546 370.75,42.7942717 370.75,42.625 L370.75,41.375 C370.75,41.2057283 370.811848,41.0592454 370.935547,40.9355469 C371.059245,40.8118483 371.205728,40.75 371.375,40.75 L372.625,40.75 Z M367.625,40.75 C367.716146,40.75 367.797526,40.7662759 367.869141,40.7988281 C367.940756,40.8313804 368.005859,40.8769528 368.064453,40.9355469 C368.123047,40.9941409 368.16862,41.0592444 368.201172,41.1308594 C368.233724,41.2024743 368.25,41.2838537 368.25,41.375 L368.25,42.625 C368.25,42.7942717 368.188152,42.9407546 368.064453,43.0644531 C367.940755,43.1881517 367.794272,43.25 367.625,43.25 L366.375,43.25 C366.205728,43.25 366.059245,43.1881517 365.935547,43.0644531 C365.811848,42.9407546 365.75,42.7942717 365.75,42.625 L365.75,41.375 C365.75,41.2057283 365.811848,41.0592454 365.935547,40.9355469 C366.059245,40.8118483 366.205728,40.75 366.375,40.75 L367.625,40.75 Z M367.625,45.75 C367.677084,45.75 367.732422,45.7565104 367.791016,45.7695312 C367.84961,45.7825521 367.901692,45.8020832 367.947266,45.828125 C367.992839,45.8541668 368.035156,45.8867186 368.074219,45.9257812 C368.113281,45.9648439 368.145833,46.0071612 368.171875,46.0527344 C368.197917,46.0983075 368.217448,46.1503903 368.230469,46.2089844 C368.24349,46.2675784 368.25,46.3229164 368.25,46.375 L368.25,47.625 C368.25,47.7942717 368.188152,47.9407546 368.064453,48.0644531 C367.940755,48.1881517 367.794272,48.25 367.625,48.25 L366.375,48.25 C366.205728,48.25 366.059245,48.1881517 365.935547,48.0644531 C365.811848,47.9407546 365.75,47.7942717 365.75,47.625 L365.75,46.375 C365.75,46.2057283 365.811848,46.0592454 365.935547,45.9355469 C366.059245,45.8118483 366.205728,45.75 366.375,45.75 L367.625,45.75 Z" id=""></path>
                </g>
            </g>
        </g>
    </g>
</svg>