<?xml version="1.0" encoding="UTF-8"?>
<svg width="21px" height="15px" viewBox="0 0 21 15" version="1.1" xmlns="http://www.w3.org/2000/svg" xmlns:xlink="http://www.w3.org/1999/xlink">
    <!-- Generator: Sketch 53.2 (72643) - https://sketchapp.com -->
    <title></title>
    <desc>Created with Sketch.</desc>
    <g id="Page-1" stroke="none" stroke-width="1" fill="none" fill-rule="evenodd">
        <g id="description" transform="translate(-216.000000, -13535.000000)" fill="#111111" fill-rule="nonzero">
            <g id="Group-Copy-2">
                <g id="Rectangle-4-Copy-27" transform="translate(0.000000, 13499.000000)">
                    <path d="M236,37.78125 C236.013021,37.7942709 236.019531,37.8105468 236.019531,37.8300781 L236.019531,47.9375 C236.019531,48.5104195 235.879559,49.018227 235.599609,49.4609375 C235.31966,49.903648 234.938804,50.125 234.457031,50.125 L218.207031,50.125 C217.686195,50.125 217.191409,49.8906273 216.722656,49.421875 C216.253904,48.9531227 216.019531,48.4583359 216.019531,47.9375 L216.019531,37.859375 C216.019531,37.8333332 216.026042,37.8072918 216.039062,37.78125 C216,37.5859365 216.045572,37.4166674 216.175781,37.2734375 L216.273438,37.1757812 C216.45573,36.9283842 216.72591,36.7330736 217.083984,36.5898438 C217.442059,36.4466139 217.816404,36.375 218.207031,36.375 L234.457031,36.375 C235.30339,36.375 235.804687,36.726559 235.960938,37.4296875 L236,37.546875 C236.013021,37.5859377 236.019531,37.6249998 236.019531,37.6640625 C236.019531,37.7031252 236.013021,37.7421873 236,37.78125 Z M218.207031,37.625 C217.907551,37.625 217.70573,37.6315104 217.601562,37.6445312 L226.019531,44.3632812 L234.457031,37.625 L218.207031,37.625 Z M234.457031,48.875 C234.665366,48.875 234.769531,48.5885445 234.769531,48.015625 L234.769531,38.9921875 L226.429688,45.6523438 C226.312499,45.74349 226.175782,45.7955729 226.019531,45.8085938 C225.86328,45.8085938 225.726563,45.7565109 225.609375,45.6523438 L217.269531,38.9921875 L217.269531,47.9375 C217.269531,48.0546881 217.321614,48.1881503 217.425781,48.3378906 C217.529948,48.487631 217.6569,48.6145828 217.806641,48.71875 C217.956381,48.8229172 218.089843,48.875 218.207031,48.875 L234.457031,48.875 Z" id=""></path>
                </g>
            </g>
        </g>
    </g>
</svg>