<?xml version="1.0" encoding="UTF-8"?>
<svg width="16px" height="21px" viewBox="0 0 16 21" version="1.1" xmlns="http://www.w3.org/2000/svg" xmlns:xlink="http://www.w3.org/1999/xlink">
    <!-- Generator: Sketch 53.2 (72643) - https://sketchapp.com -->
    <title></title>
    <desc>Created with Sketch.</desc>
    <g id="Page-1" stroke="none" stroke-width="1" fill="none" fill-rule="evenodd">
        <g id="description" transform="translate(-262.000000, -13532.000000)" fill="#111111" fill-rule="nonzero">
            <g id="Group-Copy-2">
                <g id="Rectangle-4-Copy-27" transform="translate(0.000000, 13499.000000)">
                    <path d="M270.078125,33.25 C272.31772,33.25 274.127597,33.9856697 275.507812,35.4570312 C276.835944,36.8893301 277.5,38.6926975 277.5,40.8671875 C277.5,43.9922031 275.416688,47.9504969 271.25,52.7421875 C270.96354,53.0807309 270.638023,53.25 270.273438,53.25 L270.214844,53.25 C270.058593,53.25 269.895834,53.2044275 269.726562,53.1132812 C269.557291,53.022135 269.440104,52.9472659 269.375,52.8886719 C269.309896,52.8300778 269.264323,52.7812502 269.238281,52.7421875 C269.160156,52.6640621 269.04297,52.5338551 268.886719,52.3515625 C268.365883,51.7526012 267.962241,51.2838559 267.675781,50.9453125 C267.389321,50.6067691 266.98568,50.1152376 266.464844,49.4707031 C265.944008,48.8261687 265.5306,48.2792991 265.224609,47.8300781 C264.918618,47.3808571 264.570314,46.8307324 264.179688,46.1796875 C263.789061,45.5286426 263.489584,44.9362006 263.28125,44.4023438 C263.072916,43.8684869 262.890626,43.2890656 262.734375,42.6640625 C262.578124,42.0390594 262.5,41.440107 262.5,40.8671875 C262.5,39.8515574 262.705076,38.8750047 263.115234,37.9375 C263.525393,36.9999953 264.069007,36.1894565 264.746094,35.5058594 C265.42318,34.8222622 266.227209,34.2753927 267.158203,33.8652344 C268.089197,33.4550761 269.062495,33.25 270.078125,33.25 Z M270.3125,51.9023438 C274.270853,47.3580502 276.25,43.6797016 276.25,40.8671875 C276.25,40.0468709 276.126303,39.2656287 275.878906,38.5234375 C275.631509,37.7812463 275.263674,37.1041697 274.775391,36.4921875 C274.287107,35.8802053 273.639327,35.3951841 272.832031,35.0371094 C272.024736,34.6790347 271.106776,34.5 270.078125,34.5 C268.945307,34.5 267.893885,34.7864555 266.923828,35.359375 C265.953771,35.9322945 265.182295,36.7102815 264.609375,37.6933594 C264.036455,38.6764372 263.75,39.7343693 263.75,40.8671875 C263.75,41.3750025 263.821614,41.9121065 263.964844,42.4785156 C264.108074,43.0449247 264.280598,43.5722632 264.482422,44.0605469 C264.684246,44.5488306 264.973956,45.0957001 265.351562,45.7011719 C265.729169,46.3066437 266.061196,46.8209614 266.347656,47.2441406 C266.634116,47.6673198 267.024737,48.1848928 267.519531,48.796875 C268.014325,49.4088572 268.398436,49.8743474 268.671875,50.1933594 C268.945314,50.5123714 269.329425,50.9583305 269.824219,51.53125 L270.15625,51.9023438 L270.234375,51.9804688 C270.273438,51.954427 270.299479,51.9283855 270.3125,51.9023438 Z M270.019531,37.0195312 C270.527346,37.0195312 271.012367,37.1204417 271.474609,37.3222656 C271.936851,37.5240896 272.337238,37.791014 272.675781,38.1230469 C273.014325,38.4550798 273.281249,38.8522112 273.476562,39.3144531 C273.671876,39.776695 273.769531,40.2617162 273.769531,40.7695312 C273.769531,41.8112031 273.404952,42.6966109 272.675781,43.4257812 C271.946611,44.1549516 271.064458,44.5195312 270.029297,44.5195312 C268.994135,44.5195312 268.108728,44.1549516 267.373047,43.4257812 C266.637366,42.6966109 266.269531,41.8112031 266.269531,40.7695312 C266.269531,40.3658834 266.33138,39.9752623 266.455078,39.5976562 C266.578777,39.2200502 266.757811,38.8750016 266.992188,38.5625 C267.226564,38.2499984 267.496743,37.9798188 267.802734,37.7519531 C268.108725,37.5240874 268.453774,37.3450527 268.837891,37.2148438 C269.222007,37.0846348 269.615883,37.0195312 270.019531,37.0195312 Z M270.019531,43.2695312 C270.553388,43.2695312 271.035154,43.1132828 271.464844,42.8007812 C272.154951,42.2929662 272.5,41.6093793 272.5,40.75 C272.5,40.0598924 272.255862,39.4707056 271.767578,38.9824219 C271.279294,38.4941382 270.690108,38.25 270,38.25 C269.309892,38.25 268.720706,38.4941382 268.232422,38.9824219 C267.744138,39.4707056 267.5,40.0598924 267.5,40.75 C267.5,41.4401076 267.747393,42.0325496 268.242188,42.5273438 C268.736982,43.0221379 269.329424,43.2695312 270.019531,43.2695312 Z" id=""></path>
                </g>
            </g>
        </g>
    </g>
</svg>