<?xml version="1.0" encoding="UTF-8"?>
<svg width="20px" height="18px" viewBox="0 0 20 18" version="1.1" xmlns="http://www.w3.org/2000/svg" xmlns:xlink="http://www.w3.org/1999/xlink">
    <!-- Generator: Sketch 53.2 (72643) - https://sketchapp.com -->
    <title></title>
    <desc>Created with Sketch.</desc>
    <g id="Page-1" stroke="none" stroke-width="1" fill="none" fill-rule="evenodd">
        <g id="description" transform="translate(-464.000000, -13533.000000)" fill="#111111" fill-rule="nonzero">
            <g id="Group-Copy-2">
                <g id="Rectangle-4-Copy-27" transform="translate(0.000000, 13499.000000)">
                    <path d="M482.75,34.5 C482.880209,34.5 483.010416,34.5195311 483.140625,34.5585938 C483.270834,34.5976564 483.38802,34.6562496 483.492188,34.734375 C483.596355,34.8125004 483.6875,34.9036453 483.765625,35.0078125 C483.84375,35.1119797 483.902344,35.2259108 483.941406,35.3496094 C483.980469,35.4733079 484,35.6067701 484,35.75 L484,47.0195312 C484,47.3710955 483.879558,47.6673165 483.638672,47.9082031 C483.397785,48.1490897 483.101564,48.2695312 482.75,48.2695312 L472.417969,48.2695312 L468.804688,51.8242188 C468.687499,51.9414068 468.544272,52 468.375,52 C468.322916,52 468.277344,51.9967448 468.238281,51.9902344 C468.199219,51.9837239 468.160156,51.9739584 468.121094,51.9609375 C468.06901,51.9348957 468.016927,51.9023439 467.964844,51.8632812 C467.91276,51.8242186 467.870443,51.7786461 467.837891,51.7265625 C467.805338,51.6744789 467.782552,51.6191409 467.769531,51.5605469 C467.75651,51.5019528 467.75,51.4401045 467.75,51.375 L467.75,48.2695312 L465.25,48.2695312 C464.898436,48.2695312 464.602215,48.1490897 464.361328,47.9082031 C464.120442,47.6673165 464,47.3710955 464,47.0195312 L464,35.75 C464,35.3984357 464.120442,35.1022147 464.361328,34.8613281 C464.602215,34.6204415 464.898436,34.5 465.25,34.5 L482.75,34.5 Z M482.75,47.0195312 L482.75,35.75 L465.25,35.75 L465.25,47.0195312 L469,47.0195312 L469,49.890625 L471.910156,47.0195312 L482.75,47.0195312 Z M468.375,42.0195312 C468.205728,42.0195312 468.059245,41.9576829 467.935547,41.8339844 C467.811848,41.7102858 467.75,41.5638029 467.75,41.3945312 C467.75,41.2252596 467.811848,41.0787767 467.935547,40.9550781 C468.059245,40.8313796 468.205728,40.7695312 468.375,40.7695312 L479.625,40.7695312 C479.794272,40.7695312 479.940755,40.8313796 480.064453,40.9550781 C480.188152,41.0787767 480.25,41.2252596 480.25,41.3945312 C480.25,41.5638029 480.188152,41.7102858 480.064453,41.8339844 C479.940755,41.9576829 479.794272,42.0195312 479.625,42.0195312 L468.375,42.0195312 Z M468.375,39.5195312 C468.205728,39.5195312 468.059245,39.4576829 467.935547,39.3339844 C467.811848,39.2102858 467.75,39.0638029 467.75,38.8945312 C467.75,38.7252596 467.811848,38.5787767 467.935547,38.4550781 C468.059245,38.3313796 468.205728,38.2695312 468.375,38.2695312 L479.625,38.2695312 C479.794272,38.2695312 479.940755,38.3313796 480.064453,38.4550781 C480.188152,38.5787767 480.25,38.7252596 480.25,38.8945312 C480.25,39.0638029 480.188152,39.2102858 480.064453,39.3339844 C479.940755,39.4576829 479.794272,39.5195312 479.625,39.5195312 L468.375,39.5195312 Z M468.375,44.5195312 C468.205728,44.5195312 468.059245,44.4576829 467.935547,44.3339844 C467.811848,44.2102858 467.75,44.0638029 467.75,43.8945312 C467.75,43.7252596 467.811848,43.5787767 467.935547,43.4550781 C468.059245,43.3313796 468.205728,43.2695312 468.375,43.2695312 L475.875,43.2695312 C476.044272,43.2695312 476.190755,43.3313796 476.314453,43.4550781 C476.438152,43.5787767 476.5,43.7252596 476.5,43.8945312 C476.5,44.0638029 476.438152,44.2102858 476.314453,44.3339844 C476.190755,44.4576829 476.044272,44.5195312 475.875,44.5195312 L468.375,44.5195312 Z" id=""></path>
                </g>
            </g>
        </g>
    </g>
</svg>