<?xml version="1.0" encoding="UTF-8"?>
<svg width="20px" height="21px" viewBox="0 0 20 21" version="1.1" xmlns="http://www.w3.org/2000/svg" xmlns:xlink="http://www.w3.org/1999/xlink">
    <!-- Generator: Sketch 53.2 (72643) - https://sketchapp.com -->
    <title></title>
    <desc>Created with Sketch.</desc>
    <g id="Page-1" stroke="none" stroke-width="1" fill="none" fill-rule="evenodd">
        <g id="description" transform="translate(-159.000000, -13532.000000)" fill="#111111" fill-rule="nonzero">
            <g id="Group-Copy-2">
                <g id="Rectangle-4-Copy-27" transform="translate(0.000000, 13499.000000)">
                    <path d="M169,34.5 C168.322913,34.5 167.639326,34.6692691 166.949219,35.0078125 C166.259111,35.3463559 165.699221,35.7597632 165.269531,36.2480469 C164.839842,36.7363306 164.625,37.1953104 164.625,37.625 L164.625,40.75 C164.625,41.4661494 164.791014,42.2831985 165.123047,43.2011719 C165.45508,44.1191452 165.92057,44.819008 166.519531,45.3007812 C166.884116,45.587241 167.03711,45.9615862 166.978516,46.4238281 C166.919922,46.88607 166.682294,47.2148428 166.265625,47.4101562 L160.777344,50.0078125 C160.425779,50.1640633 160.25,50.4049463 160.25,50.7304688 L160.25,52 L177.730469,51.9804688 L177.730469,50.7695312 C177.730469,50.678385 177.723958,50.5937504 177.710938,50.515625 C177.697917,50.4374996 177.67513,50.3723961 177.642578,50.3203125 C177.610026,50.2682289 177.577474,50.2259116 177.544922,50.1933594 C177.51237,50.1608071 177.476563,50.1315105 177.4375,50.1054688 C177.398437,50.079427 177.365886,50.0598959 177.339844,50.046875 C177.313802,50.0338541 177.287761,50.0240886 177.261719,50.0175781 L177.222656,50.0078125 L171.773438,47.4296875 C171.356769,47.234374 171.115886,46.9023461 171.050781,46.4335938 C171.03776,46.2903639 171.047526,46.1503913 171.080078,46.0136719 C171.11263,45.8769524 171.167968,45.7467454 171.246094,45.6230469 C171.324219,45.4993483 171.415364,45.3919275 171.519531,45.3007812 C172.131513,44.8320289 172.593748,44.1419316 172.90625,43.2304688 C173.218752,42.3190059 173.375,41.4921912 173.375,40.75 L173.375,37.625 C173.375,37.2994775 173.244793,36.9511737 172.984375,36.5800781 C172.723957,36.2089825 172.391929,35.8704442 171.988281,35.5644531 C171.584633,35.258462 171.112633,35.0045583 170.572266,34.8027344 C170.031898,34.6009104 169.507815,34.5 169,34.5 Z M169,33.25 C169.664066,33.25 170.341142,33.380207 171.03125,33.640625 C171.721358,33.901043 172.32682,34.2395813 172.847656,34.65625 C173.368492,35.0729187 173.79492,35.5449192 174.126953,36.0722656 C174.458986,36.599612 174.625,37.117185 174.625,37.625 L174.625,40.75 C174.625,41.6614629 174.432945,42.6575467 174.048828,43.7382812 C173.664712,44.8190158 173.082035,45.6653615 172.300781,46.2773438 L177.75,48.875 L177.867188,48.9140625 C177.958334,48.9531252 178.062499,49.0117184 178.179688,49.0898438 C178.296876,49.1679691 178.417317,49.2558589 178.541016,49.3535156 C178.664714,49.4511724 178.76888,49.5683587 178.853516,49.7050781 C178.938151,49.8417976 178.980469,49.9752598 178.980469,50.1054688 L178.980469,52 C178.980469,52.3385434 178.860027,52.628254 178.619141,52.8691406 C178.378254,53.1100272 178.088543,53.2304688 177.75,53.2304688 L160.25,53.2304688 C159.898436,53.2304688 159.602215,53.1100272 159.361328,52.8691406 C159.120442,52.628254 159,52.3385434 159,52 L159,50.1054688 C159,49.9882807 159.045572,49.8613288 159.136719,49.7246094 C159.227865,49.5878899 159.328775,49.4739588 159.439453,49.3828125 C159.550131,49.2916662 159.677083,49.2005213 159.820312,49.109375 C159.963542,49.0182287 160.061198,48.9596355 160.113281,48.9335938 C160.165365,48.907552 160.210937,48.8880209 160.25,48.875 L165.738281,46.2773438 C164.957027,45.6393197 164.367841,44.7701878 163.970703,43.6699219 C163.573566,42.569656 163.375,41.5963584 163.375,40.75 L163.375,37.625 C163.375,36.9479133 163.648435,36.2675815 164.195312,35.5839844 C164.74219,34.9003872 165.455074,34.340497 166.333984,33.9042969 C167.212895,33.4680968 168.101558,33.25 169,33.25 Z" id=""></path>
                </g>
            </g>
        </g>
    </g>
</svg>